<svg width="390" height="278" viewBox="0 0 390 278" fill="none" xmlns="http://www.w3.org/2000/svg">
<g clip-path="url(#clip0_8_199)">
<path d="M372.547 169.81C372.113 170.532 371.661 171.242 371.194 171.949C353.301 198.984 311.678 215.774 241.482 206.887C201.625 201.602 184.651 220.989 168.215 240.848C167.934 241.19 167.653 241.533 167.367 241.876C150.155 262.7 133.114 283.583 90.5056 276.641C45.3349 270.447 17.4575 238.638 13.1438 204.678C13.0912 204.265 13.0438 203.848 13.0008 203.435C10.5774 181.417 18.0669 158.619 37.174 141.408C48.7155 131.014 65.1134 125.493 82.0398 125.666C87.1362 125.749 92.2304 125.421 97.257 124.688C98.3664 124.518 99.4426 124.333 100.49 124.122C122.054 119.848 131.991 107.142 138.085 91.636C138.228 91.2685 138.371 90.9009 138.509 90.5293C152.503 53.5506 146.032 1.64817 222.108 9.28343C290.185 13.6358 340.146 46.3737 364.652 84.1452C364.895 84.5251 365.138 84.9051 365.376 85.285C372.112 95.7653 376.918 107.094 379.622 118.861C379.774 119.522 379.912 120.183 380.041 120.843C383.507 138.385 381.236 155.435 372.547 169.81Z" fill="#FAFCFD"/>
<path d="M365.376 85.285C360.492 90.3193 354.988 94.8763 348.964 98.8748C325.495 114.484 295.77 122.949 266.446 124.725C251.375 125.644 236.231 124.752 221.442 122.074C206.396 119.34 192.045 114.525 178.147 108.901C164.63 103.43 151.512 97.2602 138.085 91.636C138.228 91.2685 138.371 90.9009 138.509 90.5293C153.15 96.6408 167.491 103.376 182.304 109.198C196.259 114.686 210.705 119.163 225.812 121.558C240.886 123.931 256.27 124.454 271.512 123.11C300.756 120.558 330.504 111.201 352.987 94.4605C357.208 91.3177 361.111 87.8666 364.652 84.1453C364.895 84.5252 365.138 84.9051 365.376 85.285Z" fill="white"/>
<path d="M380.041 120.843C373.508 130.89 364.286 139.752 353.725 146.776C330.257 162.385 300.532 170.85 271.207 172.626C256.136 173.545 240.992 172.653 226.203 169.975C211.157 167.241 196.807 162.426 182.908 156.802C168.758 151.074 155.04 144.579 140.952 138.744C126.877 132.913 112.412 127.942 97.257 124.688C98.3664 124.518 99.4426 124.333 100.49 124.122C101.48 124.345 102.468 124.576 103.452 124.816C133.086 132.001 159.24 146.161 187.065 157.099C201.02 162.587 215.466 167.063 230.574 169.459C245.647 171.832 261.031 172.355 276.273 171.011C305.517 168.459 335.266 159.102 357.748 142.361C366.647 135.764 374.063 127.797 379.622 118.861C379.774 119.522 379.912 120.182 380.041 120.843Z" fill="white"/>
<path d="M85.8347 209.055C115.031 216.133 140.847 229.983 168.215 240.848C167.934 241.19 167.653 241.533 167.367 241.876C166.672 241.599 165.982 241.323 165.291 241.042C151.141 235.314 137.424 228.819 123.335 222.984C108.96 217.029 94.1812 211.971 78.6737 208.721C57.2379 204.243 35.0946 202.877 13.1438 204.678C13.0912 204.265 13.0438 203.848 13.0008 203.435C37.4708 201.432 62.1569 203.337 85.8347 209.055Z" fill="white"/>
<path d="M203.182 248.899H-4.45502C-4.59956 248.899 -4.73818 248.849 -4.84038 248.76C-4.94258 248.672 -5 248.551 -5 248.426C-5 248.301 -4.94258 248.18 -4.84038 248.092C-4.73818 248.003 -4.59956 247.953 -4.45502 247.953H203.182C203.327 247.953 203.466 248.003 203.568 248.092C203.67 248.18 203.727 248.301 203.727 248.426C203.727 248.551 203.67 248.672 203.568 248.76C203.466 248.849 203.327 248.899 203.182 248.899Z" fill="#CCCCCC"/>
<path d="M79.5369 185.136C86.9294 185.136 92.9222 179.938 92.9222 173.527C92.9222 167.116 86.9294 161.918 79.5369 161.918C72.1444 161.918 66.1516 167.116 66.1516 173.527C66.1516 179.938 72.1444 185.136 79.5369 185.136Z" fill="#FFB6B6"/>
<path d="M129.62 255.44L129.933 261.229L104.339 265.029L103.878 256.486L129.62 255.44Z" fill="#FFB6B6"/>
<path d="M136.01 253.701L136.721 266.86L136.448 266.871C134.346 266.991 132.251 266.552 130.444 265.612C128.81 264.709 127.87 263.458 127.796 262.09V262.09L127.362 254.053L136.01 253.701Z" fill="#2F2E41"/>
<path d="M128.904 264.965L135.586 264.965L138.764 242.614L128.903 242.615L128.904 264.965Z" fill="#FFB6B6"/>
<path d="M127.2 263.073L140.358 263.073H140.359C141.46 263.073 142.55 263.261 143.568 263.626C144.585 263.992 145.509 264.528 146.288 265.203C147.067 265.878 147.684 266.68 148.106 267.562C148.527 268.444 148.744 269.39 148.744 270.345V270.582L127.201 270.582L127.2 263.073Z" fill="#2F2E41"/>
<path d="M65.827 259.551C66.559 259.166 67.1849 258.647 67.6605 258.03C68.1362 257.413 68.45 256.713 68.58 255.979C68.7099 255.245 68.6528 254.496 68.4126 253.784C68.1724 253.071 67.7551 252.413 67.1899 251.855L72.5227 205.841L59.8218 206.611L58.5736 251.6C57.5567 252.485 56.9498 253.663 56.8677 254.911C56.7856 256.159 57.234 257.389 58.1281 258.369C59.0222 259.349 60.2997 260.011 61.7187 260.229C63.1376 260.447 64.5994 260.205 65.827 259.551V259.551Z" fill="#FFB6B6"/>
<path d="M72.4606 213.817L59.2998 212.426C58.9253 212.386 58.5651 212.277 58.2436 212.106C57.9222 211.935 57.647 211.706 57.4369 211.434C57.2269 211.162 57.0868 210.854 57.0263 210.531C56.9657 210.208 56.9862 209.878 57.0862 209.563L60.5907 198.509C60.835 196.849 61.8286 195.34 63.3535 194.314C64.8785 193.288 66.8104 192.828 68.7256 193.035C70.6408 193.243 72.3831 194.1 73.5704 195.42C74.7577 196.74 75.293 198.414 75.0591 200.076L75.4023 211.498C75.412 211.825 75.3403 212.15 75.1921 212.451C75.044 212.752 74.8228 213.022 74.5436 213.242C74.2644 213.462 73.9338 213.627 73.5744 213.726C73.2149 213.826 72.835 213.857 72.4606 213.817Z" fill="#0071CE"/>
<path d="M70.6196 266.069C69.0247 265.974 67.487 265.516 66.1617 264.741C64.8364 263.966 63.7706 262.901 63.0719 261.654C62.3733 260.407 62.0666 259.022 62.1828 257.639C62.299 256.257 62.8341 254.925 63.7339 253.779L72.3305 246.039L103.667 221.697L120.42 209.641C121.397 208.937 122.565 208.46 123.813 208.255C125.061 208.05 126.348 208.123 127.555 208.467C128.762 208.812 129.848 209.416 130.711 210.224C131.575 211.032 132.188 212.017 132.493 213.086L141.245 243.794C141.392 244.305 141.315 244.845 141.028 245.309C140.742 245.773 140.267 246.128 139.695 246.306L130.153 249.285C129.834 249.385 129.494 249.426 129.155 249.406C128.816 249.385 128.486 249.305 128.185 249.168C127.884 249.031 127.619 248.842 127.407 248.612C127.195 248.382 127.04 248.116 126.953 247.832L123.323 236.027L103.127 252.771L109.429 254.783C110.006 254.97 110.483 255.338 110.763 255.814C111.043 256.291 111.107 256.841 110.942 257.356L108.905 263.613C108.765 264.049 108.467 264.435 108.055 264.714C107.643 264.992 107.139 265.149 106.617 265.161L70.6196 266.069Z" fill="#2F2E41"/>
<path d="M69.7636 248.616L68.9347 222.358L63.7061 210.842C62.6385 208.492 62.1759 205.968 62.3507 203.448C62.5255 200.927 63.3335 198.469 64.718 196.248C66.1026 194.026 68.0303 192.094 70.3662 190.586C72.7021 189.078 75.3897 188.031 78.241 187.518C78.6715 187.441 79.1006 187.365 79.5286 187.292C82.2637 186.821 85.0822 186.852 87.8028 187.382C90.5233 187.913 93.0857 188.932 95.325 190.373C97.5643 191.814 99.4309 193.646 100.805 195.75C102.179 197.855 103.029 200.186 103.302 202.592L105.759 222.36L105.749 222.398C101.832 237.512 90.494 245.83 70.0694 248.575L69.7636 248.616Z" fill="url(#paint0_linear_8_199)"/>
<path d="M82.1296 230.377C82.4276 230.337 82.7288 230.318 83.0304 230.319L98.1586 210.895L95.2936 205.771L103.644 201.01L109.733 209.653C110.225 210.351 110.442 211.169 110.352 211.984C110.263 212.798 109.871 213.566 109.236 214.171L88.5306 233.886C88.8558 234.854 88.8337 235.884 88.4674 236.84C88.101 237.796 87.4077 238.633 86.4796 239.239C85.5515 239.845 84.4327 240.191 83.272 240.233C82.1113 240.274 80.9636 240.007 79.9817 239.469C78.9997 238.931 78.23 238.146 77.775 237.219C77.32 236.292 77.2011 235.266 77.4343 234.279C77.6675 233.292 78.2416 232.39 79.0803 231.693C79.9191 230.996 80.9826 230.537 82.1296 230.377Z" fill="#FFB6B6"/>
<path d="M96.8347 210.533C96.4953 210.451 96.1803 210.307 95.9112 210.109C95.6421 209.912 95.4253 209.666 95.2755 209.39L90.0435 199.727C89.0459 198.425 88.6845 196.832 89.0384 195.299C89.3923 193.766 90.4326 192.417 91.9314 191.548C93.4302 190.679 95.2652 190.361 97.034 190.663C98.8028 190.966 100.361 191.864 101.368 193.161L109.634 201.117C109.87 201.344 110.047 201.613 110.152 201.904C110.258 202.196 110.289 202.504 110.245 202.807C110.201 203.111 110.082 203.402 109.896 203.662C109.711 203.922 109.463 204.144 109.169 204.313L98.852 210.257C98.5585 210.426 98.2263 210.538 97.8782 210.586C97.5301 210.634 97.1741 210.616 96.8347 210.533Z" fill="#0071CE"/>
<path d="M347.963 30.6778C346.742 30.7631 345.52 30.5326 344.451 30.0155C343.382 29.4985 342.513 28.718 341.956 27.7729C341.398 26.8278 341.176 25.7604 341.317 24.7058C341.459 23.6512 341.958 22.6567 342.751 21.8481C343.545 21.0395 344.597 20.4531 345.774 20.163C346.952 19.8729 348.202 19.8922 349.367 20.2184C350.532 20.5447 351.56 21.1632 352.319 21.9958C353.079 22.8283 353.537 23.8376 353.635 24.8959C353.767 26.315 353.243 27.7215 352.18 28.8058C351.116 29.8901 349.599 30.5635 347.963 30.6778ZM347.886 29.8546C348.919 29.7825 349.903 29.4464 350.716 28.8889C351.528 28.3314 352.131 27.5776 352.45 26.7226C352.768 25.8677 352.787 24.9501 352.504 24.0859C352.221 23.2217 351.649 22.4497 350.86 21.8675C350.071 21.2853 349.1 20.9191 348.072 20.8151C347.043 20.7112 346.001 20.8742 345.079 21.2835C344.157 21.6928 343.396 22.3301 342.891 23.1148C342.387 23.8994 342.162 24.7962 342.245 25.6917C342.3 26.2863 342.49 26.8656 342.803 27.3966C343.117 27.9276 343.548 28.3999 344.071 28.7864C344.595 29.173 345.202 29.4663 345.856 29.6496C346.511 29.8329 347.201 29.9025 347.886 29.8546V29.8546Z" fill="#CCCCCC"/>
<path d="M369.276 16.9035C371.38 16.9035 373.085 15.4244 373.085 13.6C373.085 11.7755 371.38 10.2964 369.276 10.2964C367.172 10.2964 365.467 11.7755 365.467 13.6C365.467 15.4244 367.172 16.9035 369.276 16.9035Z" fill="#CCCCCC"/>
<path d="M387.999 4.95648C389.104 4.95648 390 4.17956 390 3.22118C390 2.26279 389.104 1.48587 387.999 1.48587C386.894 1.48587 385.998 2.26279 385.998 3.22118C385.998 4.17956 386.894 4.95648 387.999 4.95648Z" fill="#CCCCCC"/>
<path d="M318.879 136.341C318.204 137.227 317.241 137.919 316.113 138.33C314.984 138.742 313.74 138.854 312.538 138.652C311.336 138.45 310.231 137.944 309.36 137.197C308.49 136.45 307.895 135.496 307.65 134.456C307.405 133.416 307.521 132.336 307.984 131.353C308.447 130.37 309.235 129.528 310.249 128.933C311.264 128.339 312.459 128.019 313.683 128.013C314.907 128.008 316.106 128.317 317.127 128.903C318.495 129.689 319.448 130.913 319.776 132.308C320.105 133.702 319.782 135.153 318.879 136.341ZM309.345 130.877C308.774 131.627 308.472 132.507 308.477 133.405C308.483 134.303 308.795 135.18 309.375 135.925C309.955 136.669 310.776 137.248 311.735 137.587C312.694 137.927 313.748 138.012 314.763 137.832C315.778 137.652 316.708 137.215 317.437 136.577C318.166 135.938 318.66 135.127 318.857 134.245C319.053 133.363 318.944 132.45 318.543 131.622C318.142 130.793 317.466 130.087 316.602 129.592C315.443 128.929 314.027 128.692 312.667 128.933C311.306 129.174 310.112 129.873 309.345 130.877Z" fill="#CCCCCC"/>
<path d="M326.294 156.084C328.398 156.084 330.103 154.605 330.103 152.78C330.103 150.956 328.398 149.477 326.294 149.477C324.19 149.477 322.485 150.956 322.485 152.78C322.485 154.605 324.19 156.084 326.294 156.084Z" fill="#CCCCCC"/>
<path d="M336.919 171.441C338.024 171.441 338.92 170.664 338.92 169.706C338.92 168.748 338.024 167.971 336.919 167.971C335.814 167.971 334.918 168.748 334.918 169.706C334.918 170.664 335.814 171.441 336.919 171.441Z" fill="#CCCCCC"/>
<path d="M165.185 46.181C164.64 45.2302 164.433 44.1606 164.589 43.1076C164.745 42.0545 165.258 41.0652 166.062 40.2648C166.866 39.4645 167.926 38.8889 169.108 38.611C170.289 38.3331 171.539 38.3653 172.7 38.7035C173.86 39.0417 174.879 39.6708 175.627 40.5111C176.375 41.3515 176.82 42.3654 176.903 43.4246C176.987 44.4839 176.707 45.5409 176.098 46.462C175.489 47.3831 174.579 48.1269 173.483 48.5994C172.012 49.2314 170.313 49.3316 168.757 48.8783C167.202 48.4249 165.917 47.4549 165.185 46.181ZM175.418 41.7706C174.957 40.9661 174.232 40.2982 173.333 39.8513C172.434 39.4045 171.403 39.1989 170.37 39.2603C169.336 39.3218 168.347 39.6477 167.527 40.1968C166.707 40.7459 166.094 41.4935 165.764 42.345C165.434 43.1966 165.402 44.114 165.673 44.981C165.944 45.8481 166.506 46.626 167.287 47.2162C168.068 47.8065 169.033 48.1827 170.06 48.2973C171.088 48.4118 172.131 48.2596 173.059 47.8598C174.302 47.3226 175.248 46.3799 175.69 45.2383C176.133 44.0968 176.035 42.8497 175.418 41.7706Z" fill="#CCCCCC"/>
<path d="M145.069 46.7976C147.172 46.7976 148.878 45.3186 148.878 43.4941C148.878 41.6696 147.172 40.1906 145.069 40.1906C142.965 40.1906 141.259 41.6696 141.259 43.4941C141.259 45.3186 142.965 46.7976 145.069 46.7976Z" fill="#CCCCCC"/>
<path d="M122.856 44.7064C123.961 44.7064 124.857 43.9295 124.857 42.9711C124.857 42.0127 123.961 41.2358 122.856 41.2358C121.751 41.2358 120.855 42.0127 120.855 42.9711C120.855 43.9295 121.751 44.7064 122.856 44.7064Z" fill="#CCCCCC"/>
<path d="M93.6821 174.543L93.1242 173.309C91.5849 169.907 87.9042 167.292 83.9652 166.801C82 166.578 80.0021 166.844 78.204 167.567C76.4058 168.29 74.8813 169.441 73.8078 170.886C72.8967 172.257 72.1773 173.717 71.665 175.236C71.4894 175.688 71.3125 176.015 70.9725 176.114C70.5897 176.233 70.2089 176.029 69.5777 175.689C69.437 175.614 69.2743 175.574 69.1088 175.576C68.9432 175.578 68.7816 175.62 68.6427 175.698C68.5039 175.776 68.3935 175.887 68.3246 176.018C68.2556 176.148 68.2309 176.293 68.2533 176.435L68.9151 180.533L68.3613 180.106C64.7576 177.324 64.0172 172.089 66.6205 168.768L60.6958 169.823L60.9628 169.382C63.4233 165.263 67.6644 162.156 72.7585 160.742L67.0835 159.658L67.6571 159.351C72.7392 156.636 79.4436 156.713 84.7365 159.542C87.3949 161.019 89.5967 163.037 91.1503 165.42C92.7038 167.804 93.5621 170.481 93.6502 173.218L93.6821 174.543Z" fill="#2F2E41"/>
<path d="M260.083 79.0547C252.45 83.1135 242.37 79.1379 237.613 70.1921C232.856 61.2464 235.197 50.6665 242.831 46.6076C250.465 42.5487 260.545 46.5244 265.301 55.47C270.058 64.4158 267.717 74.9958 260.083 79.0547ZM245.011 50.7069C239.426 53.6763 237.774 61.531 241.329 68.2163C244.883 74.9016 252.319 77.9249 257.904 74.9554C263.488 71.9859 265.14 64.1311 261.585 57.4457C258.031 50.7604 250.595 47.7374 245.011 50.7069Z" fill="#F8BD26"/>
<path d="M288.226 100.357L262.007 114.299C259.693 115.525 256.937 115.689 254.343 114.755C251.749 113.821 249.529 111.864 248.17 109.315L233.084 80.9429C232.158 79.1957 231.897 77.1867 232.36 75.3567C232.823 73.5267 233.971 72.0252 235.553 71.1815L267.273 54.3154C268.857 53.4758 270.744 53.3634 272.52 54.0031C274.296 54.6428 275.816 55.9822 276.746 57.7275L291.832 86.0996C293.186 88.6517 293.566 91.5861 292.89 94.259C292.214 96.9319 290.537 99.1251 288.226 100.357Z" fill="#ED7746"/>
<path d="M265.105 76.1726C264.573 75.1703 263.808 74.3146 262.89 73.6937C261.971 73.0728 260.932 72.7091 259.879 72.64C258.826 72.571 257.798 72.7991 256.9 73.3009C256.002 73.8027 255.267 74.5601 254.77 75.4949C254.273 76.4298 254.033 77.5084 254.074 78.6197C254.115 79.7309 254.436 80.8347 255.003 81.8172C255.571 82.7998 256.364 83.6257 257.302 84.2098C258.24 84.7939 259.289 85.1151 260.34 85.1404L265.029 93.9591L269.674 91.4894L264.985 82.6707C265.573 81.7534 265.895 80.661 265.916 79.5142C265.937 78.3675 265.657 77.211 265.105 76.1726Z" fill="white"/>
</g>
<defs>
<linearGradient id="paint0_linear_8_199" x1="84.037" y1="186.96" x2="84.037" y2="248.616" gradientUnits="userSpaceOnUse">
<stop stop-color="#0071CE"/>
<stop offset="1" stop-color="#4FADF2"/>
</linearGradient>
<clipPath id="clip0_8_199">
<rect width="395" height="278" fill="white" transform="translate(-5)"/>
</clipPath>
</defs>
</svg>
