<svg width="329" height="326" viewBox="0 0 329 326" fill="none" xmlns="http://www.w3.org/2000/svg">
<path d="M251.187 90.2045L250.616 90.6833C249.655 89.5375 248.655 88.3937 247.646 87.2831L248.196 86.7819C249.212 87.8996 250.218 89.0511 251.187 90.2045ZM254.041 93.74C254.963 94.9296 255.876 96.1559 256.754 97.3848L256.147 97.8167C255.275 96.5955 254.368 95.3774 253.452 94.1956L254.041 93.74ZM245.074 83.4805L244.544 84.0036C243.493 82.9358 242.407 81.8747 241.315 80.85L241.823 80.3054C242.923 81.3372 244.016 82.4055 245.074 83.4805ZM259.32 101.134C260.149 102.398 260.961 103.693 261.736 104.983L261.096 105.364C260.327 104.082 259.519 102.796 258.697 101.541L259.32 101.134ZM238.45 77.2627L237.964 77.8273C236.835 76.8486 235.667 75.8777 234.495 74.9412L234.957 74.3575C236.138 75.2999 237.313 76.2775 238.45 77.2627L238.45 77.2627ZM263.995 108.924C264.719 110.249 265.425 111.604 266.094 112.952L265.425 113.28C264.761 111.941 264.059 110.595 263.34 109.279L263.995 108.924ZM231.352 71.5948L230.914 72.1973C229.705 71.3093 228.465 70.4353 227.226 69.5996L227.639 68.9793C228.886 69.8209 230.135 70.7009 231.352 71.5948ZM268.029 117.061C268.644 118.438 269.239 119.845 269.797 121.242L269.103 121.515C268.549 120.127 267.958 118.729 267.347 117.361L268.029 117.061ZM223.825 66.5167L223.437 67.1532C222.164 66.3671 220.858 65.596 219.554 64.8614L219.915 64.2093C221.228 64.9488 222.544 65.7251 223.825 66.5167ZM271.4 125.503C271.901 126.925 272.382 128.377 272.827 129.822L272.113 130.036C271.671 128.602 271.193 127.158 270.695 125.746L271.4 125.503ZM215.929 62.0673L215.594 62.7339C214.265 62.0539 212.905 61.3921 211.553 60.7672L211.86 60.0872C213.221 60.7165 214.591 61.3828 215.929 62.0673ZM274.08 134.192C274.467 135.652 274.828 137.137 275.154 138.607L274.425 138.762C274.1 137.302 273.741 135.827 273.357 134.377L274.08 134.192ZM207.714 58.2715L207.435 58.9634C206.054 58.3918 204.646 57.8412 203.248 57.3266L203.499 56.6237C204.906 57.1418 206.325 57.6961 207.714 58.2715L207.714 58.2715ZM276.05 143.058C276.318 144.545 276.559 146.052 276.766 147.539L276.025 147.635C275.82 146.158 275.581 144.66 275.314 143.184L276.05 143.058ZM199.222 55.1459L198.999 55.8587C197.582 55.4008 196.134 54.9643 194.695 54.5619L194.889 53.8408C196.338 54.2456 197.796 54.6848 199.222 55.1459L199.222 55.1459ZM277.301 152.042C277.449 153.542 277.569 155.062 277.656 156.56L276.909 156.596C276.823 155.108 276.704 153.598 276.557 152.108L277.301 152.042ZM190.509 52.7095L190.344 53.4385C188.897 53.0954 187.419 52.7761 185.952 52.4896L186.087 51.7543C187.565 52.0426 189.052 52.3641 190.509 52.7095ZM277.829 161.086C277.856 162.588 277.853 164.111 277.821 165.612L277.073 165.588C277.105 164.097 277.108 162.584 277.081 161.092L277.829 161.086ZM181.632 50.9768L181.526 51.717C180.053 51.4902 178.554 51.2902 177.074 51.1225L177.151 50.378C178.641 50.5469 180.149 50.7483 181.632 50.9767L181.632 50.9768ZM277.632 170.132C277.539 171.627 277.415 173.143 277.263 174.637L276.519 174.554C276.67 173.069 276.794 171.563 276.885 170.078L277.632 170.132ZM172.649 49.9593L172.602 50.7065C171.118 50.5982 169.609 50.5184 168.119 50.4697L168.136 49.7207C169.636 49.77 171.155 49.8502 172.649 49.9593L172.649 49.9593ZM276.714 179.122C276.502 180.609 276.257 182.109 275.986 183.578L275.251 183.435C275.52 181.975 275.763 180.486 275.974 179.008L276.714 179.122ZM163.617 49.6632L163.631 50.4124C162.138 50.4235 160.629 50.4651 159.144 50.5358L159.101 49.7874C160.596 49.7161 162.115 49.6747 163.617 49.6632L163.617 49.6632ZM275.081 187.998C274.751 189.459 274.388 190.932 274 192.376L273.277 192.175C273.663 190.74 274.024 189.277 274.352 187.826L275.081 187.998ZM154.594 50.0933L154.668 50.8393C153.182 50.9708 151.681 51.1337 150.208 51.3238L150.105 50.5808C151.588 50.3895 153.098 50.2255 154.594 50.0934L154.594 50.0933ZM272.744 196.704C272.298 198.13 271.818 199.567 271.315 200.975L270.611 200.716C271.11 199.317 271.588 197.89 272.03 196.474L272.744 196.704ZM145.638 51.2486L145.771 51.9871C144.3 52.2381 142.818 52.5221 141.366 52.8307L141.204 52.0977C142.665 51.787 144.158 51.5013 145.638 51.2487L145.638 51.2486ZM269.715 205.182C269.157 206.565 268.562 207.957 267.948 209.317L267.266 209.003C267.876 207.651 268.467 206.269 269.022 204.895L269.715 205.182ZM136.808 53.1262L137 53.8525C135.559 54.221 134.105 54.6241 132.679 55.0514L132.458 54.3333C133.893 53.9033 135.357 53.4971 136.808 53.1262ZM266.016 213.375C265.347 214.71 264.642 216.047 263.922 217.348L263.267 216.979C263.982 215.687 264.682 214.359 265.347 213.033L266.016 213.375ZM128.16 55.717L128.41 56.4256C127 56.9123 125.584 57.4331 124.201 57.9739L123.923 57.2759C125.315 56.731 126.741 56.2069 128.16 55.717ZM261.661 221.242C260.885 222.519 260.071 223.796 259.244 225.039L258.62 224.619C259.442 223.384 260.25 222.115 261.021 220.847L261.661 221.242ZM119.765 59.0019L120.072 59.6885C118.716 60.2838 117.352 60.9166 116.017 61.5697L115.683 60.8962C117.028 60.2384 118.401 59.601 119.765 59.0019L119.765 59.0019ZM256.673 228.733C255.795 229.942 254.881 231.148 253.955 232.319L253.367 231.85C254.286 230.687 255.195 229.489 256.068 228.288L256.673 228.733ZM111.683 62.9548L112.044 63.6153C110.741 64.3195 109.434 65.0617 108.158 65.8208L107.771 65.1755C109.056 64.4113 110.372 63.6642 111.683 62.9548L111.683 62.9548ZM251.093 235.789C250.122 236.919 249.112 238.046 248.092 239.139L247.544 238.625C248.557 237.538 249.56 236.419 250.524 235.297L251.093 235.789ZM103.953 67.5538L104.365 68.1833C103.121 68.9936 101.878 69.8392 100.672 70.6968L100.235 70.0842C101.45 69.221 102.7 68.3697 103.953 67.5539L103.953 67.5538ZM244.958 242.364C243.897 243.413 242.8 244.455 241.697 245.461L241.19 244.904C242.286 243.905 243.376 242.871 244.43 241.829L244.958 242.364ZM96.6231 72.762L97.0837 73.3568C95.9094 74.2655 94.7389 75.2083 93.6053 76.1595L93.4166 76.3183L92.9329 75.742L93.1204 75.5841C94.2627 74.6256 95.4406 73.6765 96.6231 72.762L96.6231 72.762ZM237.83 247.847L238.313 248.424L238.217 248.504C237.105 249.438 235.96 250.361 234.815 251.248L234.354 250.654C235.491 249.773 236.628 248.855 237.735 247.926L237.83 247.847ZM90.0599 79.2645C88.9672 80.2624 87.8779 81.2981 86.823 82.3435L86.2943 81.8078C87.3566 80.7558 88.4529 79.713 89.553 78.7085L90.0599 79.2645ZM230.768 253.318L231.206 253.93C229.988 254.798 228.738 255.651 227.491 256.465L227.078 255.836C228.317 255.027 229.558 254.18 230.768 253.318ZM83.7131 85.5506C82.7049 86.6335 81.7031 87.7542 80.7363 88.882L80.1668 88.3901C81.1404 87.2552 82.1486 86.1267 83.1641 85.0367L83.7131 85.5506ZM223.289 258.202L223.676 258.847C222.393 259.612 221.078 260.361 219.766 261.072L219.405 260.412C220.708 259.706 222.014 258.962 223.289 258.202ZM77.8973 92.3328C76.9769 93.4994 76.0698 94.6983 75.2011 95.8969L74.5943 95.4526C75.4688 94.2459 76.3822 93.0386 77.3088 91.8645L77.8973 92.3328ZM215.434 262.462L215.768 263.135C214.428 263.793 213.055 264.432 211.688 265.034L211.381 264.348C212.739 263.749 214.103 263.115 215.434 262.462L215.434 262.462ZM72.6521 99.5689C71.832 100.804 71.0253 102.074 70.2552 103.343L69.615 102.949C70.3905 101.671 71.2024 100.393 72.0283 99.1495L72.6521 99.5689ZM207.253 266.067L207.532 266.765C206.14 267.311 204.715 267.838 203.297 268.328L203.046 267.62C204.455 267.132 205.871 266.61 207.253 266.067ZM68.0144 107.214C67.297 108.514 66.5985 109.842 65.9382 111.163L65.269 110.822C65.9337 109.492 66.6366 108.155 67.3587 106.846L68.0144 107.214ZM198.779 268.999L199.001 269.717C197.567 270.148 196.104 270.556 194.653 270.929L194.46 270.203C195.902 269.833 197.355 269.428 198.779 268.999ZM64.0232 115.195C63.4148 116.547 62.8255 117.929 62.2721 119.305L61.5782 119.019C62.1352 117.634 62.7282 116.242 63.3411 114.881L64.0232 115.195ZM190.094 271.23L190.258 271.962C188.793 272.275 187.302 272.563 185.824 272.816L185.69 272.078C187.158 271.826 188.64 271.54 190.094 271.23L190.094 271.23ZM60.6885 123.486C60.1903 124.886 59.7143 126.313 59.2739 127.73L58.5597 127.5C59.003 126.074 59.4823 124.637 59.9837 123.228L60.6885 123.486ZM181.255 272.746L181.359 273.489C179.872 273.683 178.362 273.848 176.869 273.982L176.795 273.236C178.278 273.103 179.778 272.939 181.255 272.746L181.255 272.746ZM58.0311 132.03C57.6474 133.466 57.2875 134.93 56.9617 136.38L56.2321 136.208C56.5601 134.749 56.9223 133.275 57.3089 131.83L58.0311 132.03ZM172.319 273.544L172.363 274.293C170.865 274.366 169.346 274.409 167.847 274.422L167.833 273.673C169.322 273.66 170.831 273.617 172.319 273.544L172.319 273.544ZM56.0673 140.772C55.7996 142.236 55.5582 143.725 55.3494 145.199L54.609 145.087C54.819 143.603 55.0622 142.103 55.3317 140.63L56.0673 140.772ZM163.344 273.621L163.328 274.369C161.831 274.322 160.312 274.243 158.815 274.136L158.861 273.389C160.348 273.495 161.857 273.573 163.344 273.621L163.344 273.621ZM54.8088 149.655C54.6591 151.14 54.5374 152.645 54.4471 154.131L53.7006 154.078C53.7916 152.583 53.914 151.066 54.0649 149.572L54.8088 149.655ZM154.389 272.977L154.313 273.722C152.823 273.555 151.315 273.355 149.831 273.128L149.936 272.388C151.411 272.613 152.909 272.811 154.389 272.977L154.389 272.977ZM54.2641 158.621C54.2333 160.114 54.2323 161.627 54.2612 163.117L53.5134 163.124C53.4846 161.624 53.4854 160.101 53.5167 158.598L54.2641 158.621ZM145.509 271.62L145.375 272.355C143.899 272.069 142.412 271.75 140.952 271.405L141.116 270.676C142.566 271.018 144.044 271.336 145.509 271.62L145.509 271.62ZM54.4385 167.613C54.5272 169.106 54.6474 170.616 54.7953 172.101L54.0513 172.168C53.9023 170.673 53.7814 169.153 53.6919 167.65L54.4385 167.613ZM136.763 269.557L136.57 270.279C135.121 269.876 133.663 269.438 132.236 268.978L132.458 268.265C133.876 268.722 135.324 269.157 136.763 269.557L136.763 269.557ZM55.3319 176.574C55.5399 178.055 55.7808 179.553 56.0481 181.024L55.3122 181.151C55.0434 179.67 54.801 178.162 54.5913 176.671L55.3319 176.574ZM128.208 266.802L127.958 267.505C126.549 266.988 125.131 266.435 123.741 265.862L124.02 265.17C125.4 265.74 126.809 266.289 128.208 266.802L128.208 266.802ZM56.9423 185.445C57.2688 186.905 57.6294 188.38 58.0146 189.828L57.2922 190.014C56.9044 188.556 56.541 187.071 56.2128 185.601L56.9423 185.445ZM119.9 263.371L119.593 264.051C118.231 263.423 116.861 262.758 115.522 262.075L115.856 261.408C117.186 262.087 118.547 262.747 119.9 263.371L119.9 263.371ZM59.2633 194.168C59.707 195.601 60.186 197.043 60.6867 198.456L59.9821 198.7C59.4781 197.278 58.9959 195.825 58.5494 194.383L59.2633 194.168ZM111.894 259.285L111.533 259.938C110.221 259.201 108.905 258.426 107.621 257.635L108.008 256.998C109.283 257.783 110.591 258.553 111.894 259.285L111.894 259.285ZM62.2829 202.687C62.8394 204.076 63.4318 205.473 64.0438 206.839L63.3621 207.139C62.746 205.764 62.1497 204.358 61.5894 202.96L62.2829 202.687ZM104.217 254.555L103.804 255.176C102.555 254.335 101.305 253.457 100.088 252.565L100.526 251.962C101.734 252.848 102.976 253.72 104.217 254.555L104.217 254.555ZM65.9708 210.917C66.636 212.256 67.339 213.601 68.0603 214.916L67.4056 215.272C66.6795 213.948 65.9719 212.593 65.302 211.246L65.9708 210.917ZM96.9419 249.222L96.4803 249.806C95.3032 248.868 94.1271 247.892 92.9847 246.905L93.4696 246.34C94.6047 247.32 95.7728 248.29 96.9419 249.222ZM70.3085 218.829C71.0809 220.112 71.8894 221.398 72.7119 222.649L72.0885 223.056C71.2606 221.797 70.4466 220.503 69.6694 219.211L70.3085 218.829ZM90.1151 243.321L89.6074 243.866C88.5072 242.835 87.4123 241.768 86.3538 240.694L86.883 240.171C87.9348 241.237 89.0222 242.297 90.1151 243.321L90.1151 243.321ZM75.2653 226.37C76.1359 227.587 77.044 228.804 77.9643 229.989L77.3758 230.445C76.4495 229.253 75.5355 228.028 74.659 226.803L75.2653 226.37ZM83.7776 236.894L83.2276 237.396C82.2135 236.283 81.2062 235.133 80.2335 233.978L80.8031 233.498C81.7693 234.646 82.7701 235.788 83.7776 236.894L83.7776 236.894Z" fill="#CCCCCC"/>
<path d="M72.622 105.92C70.0844 102.896 65.6013 102.48 62.6087 104.991C59.616 107.502 59.2472 111.989 61.7848 115.014C64.3224 118.038 68.8055 118.454 71.7981 115.943C74.7907 113.431 75.1596 108.944 72.622 105.92Z" fill="#0071CE"/>
<path d="M76.4167 210.524C72.6771 206.067 66.0704 205.454 61.6602 209.155C57.2501 212.855 56.7065 219.468 60.4461 223.925C64.1857 228.381 70.7924 228.994 75.2026 225.294C79.6128 221.593 80.1564 214.98 76.4167 210.524Z" fill="#FFB6B6"/>
<path d="M247.227 76.3069C244.69 73.2827 240.206 72.8668 237.214 75.3779C234.221 77.889 233.852 82.3762 236.39 85.4004C238.928 88.4246 243.411 88.8406 246.403 86.3294C249.396 83.8183 249.765 79.3311 247.227 76.3069Z" fill="#EC0000"/>
<path d="M165.932 166.464C155.211 172.165 141.493 167.409 135.353 155.861C129.213 144.314 132.941 130.281 143.662 124.58C154.384 118.879 168.102 123.636 174.242 135.183C180.382 146.731 176.654 160.763 165.932 166.464ZM146.476 129.872C138.632 134.042 135.983 144.456 140.572 153.086C145.16 161.716 155.275 165.343 163.119 161.173C170.963 157.002 173.611 146.588 169.023 137.958C164.434 129.329 154.32 125.701 146.476 129.872Z" fill="#F8BD26"/>
<path d="M203.751 193.17L166.924 212.751C163.675 214.474 159.865 214.82 156.331 213.713C152.797 212.605 149.827 210.136 148.072 206.845L128.599 170.221C127.403 167.966 127.138 165.335 127.863 162.905C128.587 160.475 130.242 158.445 132.464 157.26L177.017 133.571C179.242 132.391 181.85 132.155 184.27 132.913C186.689 133.671 188.723 135.362 189.924 137.614L209.397 174.238C211.144 177.533 211.531 181.376 210.472 184.925C209.414 188.474 206.997 191.439 203.751 193.17Z" fill="#ED7746"/>
<path d="M172.995 162.435C172.308 161.141 171.294 160.051 170.056 159.277C168.818 158.504 167.402 158.074 165.953 158.033C164.504 157.992 163.075 158.34 161.812 159.043C160.55 159.745 159.5 160.777 158.771 162.03C158.041 163.284 157.659 164.715 157.663 166.175C157.667 167.635 158.058 169.073 158.794 170.339C159.531 171.605 160.587 172.654 161.853 173.379C163.12 174.103 164.551 174.477 166 174.46L172.053 185.844L178.576 182.375L172.524 170.991C173.378 169.757 173.874 168.304 173.957 166.794C174.04 165.284 173.707 163.775 172.995 162.435Z" fill="white"/>
</svg>
